<svg width="24" height="24" viewBox="0 0 24 24" fill="none" xmlns="http://www.w3.org/2000/svg">
<path d="M11 0V3H13V0H11ZM4.22266 2.80859L2.80859 4.22266L4.92969 6.34375L6.34375 4.92969L4.22266 2.80859ZM19.7773 2.80859L17.6562 4.92969L19.0703 6.34375L21.1914 4.22266L19.7773 2.80859ZM12 5C8.14 5 5 8.14 5 12C5 14.785 6.639 17.1885 9 18.3145V21C9 22.103 9.897 23 11 23H13C14.103 23 15 22.103 15 21V18.3145C17.361 17.1885 19 14.785 19 12C19 8.14 15.86 5 12 5ZM0 11V13H3V11H0ZM21 11V13H24V11H21ZM4.92969 17.6562L2.80859 19.7773L4.22266 21.1914L6.34375 19.0703L4.92969 17.6562ZM19.0703 17.6562L17.6562 19.0703L19.7773 21.1914L21.1914 19.7773L19.0703 17.6562Z" fill="white"/>
</svg>
