<svg width="29" height="29" viewBox="0 0 29 29" fill="none" xmlns="http://www.w3.org/2000/svg">
<g clip-path="url(#clip0_385_2897)">
<path d="M6.62891 2.37939L8.87666 5.8763C6.72055 7.2585 5.08997 9.45672 4.5041 12.151C3.33248 17.5391 6.76286 22.8759 12.1509 24.0475C17.539 25.2191 22.8758 21.7888 24.0474 16.4007C25.219 11.0126 21.7886 5.67582 16.4006 4.5042L15.9756 6.45853C20.2859 7.39578 23.0303 11.6654 22.0931 15.9757C21.1558 20.286 16.8862 23.0304 12.5759 22.0932C8.26563 21.1559 5.52118 16.8863 6.45843 12.576C6.92716 10.4204 8.23134 8.66059 9.95499 7.55389L11.9817 10.7069L13.4691 3.86676L6.62891 2.37939Z" fill="white"/>
</g>
<defs>
<clipPath id="clip0_385_2897">
<rect width="24" height="24" fill="white" transform="translate(5.09961) rotate(12.2678)"/>
</clipPath>
</defs>
</svg>
